/* XPM */
static char * bottom_inactive_xpm[] = {
"1 8 4 1",
" 	c None",
".	c #3B3C3E",
"+	c #262626",
"@	c #141414",
".",
"+",
"+",
"+",
"+",
"+",
"+",
"@"};
