/* XPM */
static char * bottom_right_active_xpm[] = {
"8 8 11 1",
" 	c None",
".	c #262626",
"+	c #282828",
"@	c #252525",
"#	c #242424",
"$	c #212121",
"%	c #202020",
"&	c #1F1F1F",
"*	c #161616",
"=	c #141414",
"-	c #151515",
".......+",
"........",
"........",
".....@. ",
".....## ",
"...$%&  ",
".@%%*   ",
"==-*    "};
