/* XPM */
static char * bottom_left_active_xpm[] = {
"8 8 14 1",
" 	c None",
".	c #3B3C3E",
"+	c #262626",
"@	c #3A3B3D",
"#	c #272728",
"$	c #2A2A2B",
"%	c #252525",
"&	c #242424",
"*	c #1F1F1F",
"=	c #202020",
"-	c #212121",
";	c #161616",
">	c #151515",
",	c #141414",
".+++++++",
"@+++++++",
"@#++++++",
" $%+++++",
" &&+++++",
"  *=-+++",
"   ;==%+",
"    ;;>,"};
