/* XPM */
static char * close_active_xpm[] = {
"26 24 265 2",
"  	c None",
". 	c #9C9C9C",
"+ 	c #595959",
"@ 	c #7A7A7A",
"# 	c #5A5A5A",
"$ 	c #525251",
"% 	c #4D4C4C",
"& 	c #4C4D4C",
"* 	c #515151",
"= 	c #8A8A8A",
"- 	c #6F6F6F",
"; 	c #4D4D4D",
"> 	c #2E2E2E",
", 	c #1A1A1A",
"' 	c #0E0E0E",
") 	c #4D4D4C",
"! 	c #5E5E5E",
"~ 	c #242424",
"{ 	c #000000",
"] 	c #000001",
"^ 	c #010102",
"/ 	c #5E5E5F",
"( 	c #818181",
"_ 	c #565656",
": 	c #0D0D0D",
"< 	c #050505",
"[ 	c #050607",
"} 	c #080B0E",
"| 	c #171B1E",
"1 	c #1F2529",
"2 	c #171B1F",
"3 	c #080C0F",
"4 	c #050708",
"5 	c #060505",
"6 	c #0E0E0D",
"7 	c #565657",
"8 	c #7B7B7B",
"9 	c #5D5D5D",
"0 	c #121212",
"a 	c #0B0C0C",
"b 	c #131617",
"c 	c #353B3F",
"d 	c #565D61",
"e 	c #6B7277",
"f 	c #767C81",
"g 	c #767D81",
"h 	c #565D62",
"i 	c #363C41",
"j 	c #141618",
"k 	c #0B0B0B",
"l 	c #737373",
"m 	c #2D2E2E",
"n 	c #1A1D1F",
"o 	c #454D51",
"p 	c #6B7379",
"q 	c #848C92",
"r 	c #878F95",
"s 	c #879096",
"t 	c #879097",
"u 	c #868F95",
"v 	c #838C91",
"w 	c #6B747A",
"x 	c #444D53",
"y 	c #1A1E20",
"z 	c #2D2D2D",
"A 	c #696969",
"B 	c #151719",
"C 	c #323A40",
"D 	c #5E686E",
"E 	c #6C767E",
"F 	c #6B757C",
"G 	c #707E87",
"H 	c #6C767D",
"I 	c #6C757B",
"J 	c #5E6971",
"K 	c #333B42",
"L 	c #151819",
"M 	c #626262",
"N 	c #3F3F3F",
"O 	c #232222",
"P 	c #191F23",
"Q 	c #37434C",
"R 	c #57646F",
"S 	c #535F67",
"T 	c #80B1CA",
"U 	c #84BAD3",
"V 	c #50595F",
"W 	c #87BCD5",
"X 	c #82B5CE",
"Y 	c #54616A",
"Z 	c #586772",
"` 	c #384650",
" .	c #1A2125",
"..	c #585858",
"+.	c #373637",
"@.	c #2A2A2B",
"#.	c #19232C",
"$.	c #2F414D",
"%.	c #475A69",
"&.	c #41515D",
"*.	c #80BCDB",
"=.	c #87C2E5",
"-.	c #88C7E8",
";.	c #88C8EA",
">.	c #88C5E7",
",.	c #82BEDE",
"'.	c #425360",
").	c #475D6C",
"!.	c #304250",
"~.	c #1A262D",
"{.	c #2A2B2A",
"].	c #373736",
"^.	c #505050",
"/.	c #393939",
"(.	c #2E3032",
"_.	c #172730",
":.	c #243A4A",
"<.	c #365164",
"[.	c #3A576C",
"}.	c #293841",
"|.	c #89D1F8",
"1.	c #8DD3FE",
"2.	c #8DD5FE",
"3.	c #8DD2FB",
"4.	c #2A3842",
"5.	c #3C5A6F",
"6.	c #375468",
"7.	c #263E4F",
"8.	c #182835",
"9.	c #2E3033",
"0.	c #3A3939",
"a.	c #313131",
"b.	c #414142",
"c.	c #37393A",
"d.	c #1A2B38",
"e.	c #213A4D",
"f.	c #2B4C64",
"g.	c #31526C",
"h.	c #202F3C",
"i.	c #92DCFF",
"j.	c #97E2FF",
"k.	c #95DEFF",
"l.	c #21313C",
"m.	c #33576F",
"n.	c #2F506A",
"o.	c #233F53",
"p.	c #1C2F3B",
"q.	c #38393C",
"r.	c #303030",
"s.	c #454545",
"t.	c #464748",
"u.	c #22313D",
"v.	c #203D51",
"w.	c #2A4E67",
"x.	c #234054",
"y.	c #90DDFF",
"z.	c #9AE9FF",
"A.	c #9FEEFF",
"B.	c #9FF1FF",
"C.	c #9CECFF",
"D.	c #95E2FF",
"E.	c #254156",
"F.	c #2C526D",
"G.	c #234156",
"H.	c #243541",
"I.	c #464647",
"J.	c #555555",
"K.	c #303C45",
"L.	c #213D52",
"M.	c #2A506A",
"N.	c #224055",
"O.	c #91E3FF",
"P.	c #A0F2FF",
"Q.	c #192F3F",
"R.	c #1A2F3F",
"S.	c #A1F5FF",
"T.	c #99E8FF",
"U.	c #244359",
"V.	c #2D5370",
"W.	c #244257",
"X.	c #313E48",
"Y.	c #464746",
"Z.	c #606060",
"`.	c #4C5054",
" +	c #294D66",
".+	c #2C546E",
"++	c #284861",
"@+	c #2B4F6A",
"#+	c #3B6E92",
"$+	c #3B6F93",
"%+	c #2C516C",
"&+	c #284B63",
"*+	c #2E5673",
"=+	c #284254",
"-+	c #4B5155",
";+	c #2C2C2C",
">+	c #5C5B5B",
",+	c #6C6C6B",
"'+	c #455159",
")+	c #26465C",
"!+	c #2F5674",
"~+	c #376688",
"{+	c #3D7096",
"]+	c #40769E",
"^+	c #4077A0",
"/+	c #3E7299",
"(+	c #38698C",
"_+	c #315B79",
":+	c #284A62",
"<+	c #46525B",
"[+	c #6B6B6B",
"}+	c #5C5B5C",
"|+	c #444444",
"1+	c #747473",
"2+	c #777777",
"3+	c #4D5A63",
"4+	c #314F65",
"5+	c #305977",
"6+	c #366485",
"7+	c #3A6B8E",
"8+	c #3A6B90",
"9+	c #376689",
"0+	c #325C7B",
"a+	c #325269",
"b+	c #4D5B65",
"c+	c #787777",
"d+	c #292929",
"e+	c #7D7E7D",
"f+	c #838382",
"g+	c #666E74",
"h+	c #4C606E",
"i+	c #3E5C71",
"j+	c #375C77",
"k+	c #385D78",
"l+	c #3F5E74",
"m+	c #4D6170",
"n+	c #676F75",
"o+	c #838383",
"p+	c #7D7D7D",
"q+	c #49494A",
"r+	c #737474",
"s+	c #8E8E8D",
"t+	c #8D8D8E",
"u+	c #878989",
"v+	c #7C8184",
"w+	c #7B8085",
"x+	c #87898A",
"y+	c #8E8E8E",
"z+	c #8E8D8D",
"A+	c #747374",
"B+	c #494949",
"C+	c #272727",
"D+	c #333333",
"E+	c #535353",
"F+	c #6E6D6E",
"G+	c #818180",
"H+	c #8C8C8C",
"I+	c #6E6E6E",
"J+	c #282828",
"K+	c #282827",
"L+	c #3A3A3A",
"M+	c #393A3A",
"N+	c #323233",
"O+	c #262626",
"P+	c #141414",
". . . . . . . . . . . . . . . . . . . . . . . . . . ",
"+ + + + + + + + + + + + + + + + + + + + + + + + + + ",
"@ @ @ @ @ @ @ @ @ @ # $ % & * + @ @ @ @ @ @ @ @ @ @ ",
"= = = = = = = = - ; > , ' ' , > ) - = = = = = = = = ",
"= = = = = = = ! ~ { { ] ^ ^ ] { { ~ / = = = = = = = ",
"( ( ( ( ( ( _ : < [ } | 1 1 2 3 4 5 6 7 ( ( ( ( ( ( ",
"8 8 8 8 8 9 0 a b c d e f g e h i j k 0 9 8 8 8 8 8 ",
"l l l l l m 0 n o p q r s t u v w x y 0 z l l l l l ",
"A A A A A , B C D E p F G G H I E J K L , A A A A A ",
"M M M M N O P Q R S T U V V W X Y Z `  .O N M M M M ",
"........+.@.#.$.%.&.*.=.-.;.>.,.'.).!.~.{.].........",
"^.^.^.^./.(._.:.<.[.}.|.1.2.3.4.5.6.7.8.9.0.^.^.^.^.",
"a.a.a.a.b.c.d.e.f.g.h.i.j.j.k.l.m.n.o.p.q.b.a.a.a.a.",
"r.r.r.r.s.t.u.v.w.x.y.z.A.B.C.D.E.F.G.H.t.s.r.r.r.r.",
"> > > > I.J.K.L.M.N.O.P.Q.R.S.T.U.V.W.X.J.Y.> > > > ",
"> > > > > Z.`.7. +.+++@+#+$+%+&+*+%+=+-+Z.> > > > > ",
";+;+;+;+;+>+,+'+)+!+~+{+]+^+/+(+_+:+<+[+}+;+;+;+;+;+",
";+;+;+;+;+|+1+2+3+4+5+6+7+8+9+0+a+b+c+l |+;+;+;+;+;+",
"d+d+d+d+d+d+; e+f+g+h+i+j+k+l+m+n+o+p+; d+d+d+d+d+d+",
"d+d+d+d+d+d+d+q+r+s+t+u+v+w+x+y+z+A+B+d+d+d+d+d+d+d+",
"C+C+C+C+C+C+C+C+D+E+F+G+H+H+( I+E+D+C+C+C+C+C+C+C+C+",
"J+J+J+J+J+J+J+J+J+J+K+D+L+M+N+K+J+J+J+J+J+J+J+J+J+J+",
"O+O+O+O+O+O+O+O+O+O+O+O+O+O+O+O+O+O+O+O+O+O+O+O+O+O+",
"P+P+P+P+P+P+P+P+P+P+P+P+P+P+P+P+P+P+P+P+P+P+P+P+P+P+"};
