/* XPM */
static char * hide_active_xpm[] = {
"26 24 269 2",
"  	c None",
". 	c #9C9C9C",
"+ 	c #595959",
"@ 	c #7A7A7A",
"# 	c #5A5A5A",
"$ 	c #525251",
"% 	c #4D4C4C",
"& 	c #4C4D4C",
"* 	c #515151",
"= 	c #8A8A8A",
"- 	c #6F6F6F",
"; 	c #4D4D4D",
"> 	c #2E2E2E",
", 	c #1A1A1A",
"' 	c #0E0E0E",
") 	c #4D4D4C",
"! 	c #5E5E5E",
"~ 	c #242424",
"{ 	c #000000",
"] 	c #000001",
"^ 	c #010102",
"/ 	c #5E5E5F",
"( 	c #818181",
"_ 	c #565656",
": 	c #0D0D0D",
"< 	c #050505",
"[ 	c #050607",
"} 	c #080B0E",
"| 	c #171B1E",
"1 	c #1F2529",
"2 	c #171B1F",
"3 	c #080C0F",
"4 	c #050708",
"5 	c #060505",
"6 	c #0E0E0D",
"7 	c #565657",
"8 	c #7B7B7B",
"9 	c #5D5D5D",
"0 	c #121212",
"a 	c #0B0C0C",
"b 	c #131617",
"c 	c #353B3F",
"d 	c #565D61",
"e 	c #6B7277",
"f 	c #767C81",
"g 	c #767D81",
"h 	c #565D62",
"i 	c #363C41",
"j 	c #141618",
"k 	c #0B0B0B",
"l 	c #737373",
"m 	c #2D2E2E",
"n 	c #1A1D1F",
"o 	c #454D51",
"p 	c #6B7379",
"q 	c #848C92",
"r 	c #878F95",
"s 	c #879096",
"t 	c #879097",
"u 	c #868F95",
"v 	c #838C91",
"w 	c #6B747A",
"x 	c #444D53",
"y 	c #1A1E20",
"z 	c #2D2D2D",
"A 	c #696969",
"B 	c #151719",
"C 	c #323A40",
"D 	c #5E686E",
"E 	c #6E7981",
"F 	c #707D85",
"G 	c #717F8A",
"H 	c #73828C",
"I 	c #72828C",
"J 	c #72818B",
"K 	c #707E88",
"L 	c #6E7A82",
"M 	c #5E6971",
"N 	c #333B42",
"O 	c #151819",
"P 	c #626262",
"Q 	c #3F3F3F",
"R 	c #232222",
"S 	c #191F23",
"T 	c #37434C",
"U 	c #57646F",
"V 	c #5A6C78",
"W 	c #5D717F",
"X 	c #5F7485",
"Y 	c #607787",
"Z 	c #617788",
"` 	c #5F7586",
" .	c #5E7282",
"..	c #5B6E7B",
"+.	c #586772",
"@.	c #384650",
"#.	c #1A2125",
"$.	c #585858",
"%.	c #373637",
"&.	c #2A2A2B",
"*.	c #19232C",
"=.	c #2F414D",
"-.	c #475A69",
";.	c #4B6274",
">.	c #4F6A7E",
",.	c #516E85",
"'.	c #527187",
").	c #527288",
"!.	c #527087",
"~.	c #506B81",
"{.	c #4C6679",
"].	c #475D6C",
"^.	c #304250",
"/.	c #1A262D",
"(.	c #2A2B2A",
"_.	c #373736",
":.	c #505050",
"<.	c #393939",
"[.	c #2E3032",
"}.	c #172730",
"|.	c #243A4A",
"1.	c #365164",
"2.	c #3F5F76",
"3.	c #42667F",
"4.	c #476E88",
"5.	c #49708D",
"6.	c #49718D",
"7.	c #496F8B",
"8.	c #446A84",
"9.	c #41627A",
"0.	c #375468",
"a.	c #263E4F",
"b.	c #182835",
"c.	c #2E3033",
"d.	c #3A3939",
"e.	c #313131",
"f.	c #414142",
"g.	c #37393A",
"h.	c #1A2B38",
"i.	c #213A4D",
"j.	c #2B4C64",
"k.	c #365C78",
"l.	c #3E6787",
"m.	c #426F90",
"n.	c #447393",
"o.	c #447395",
"p.	c #437093",
"q.	c #406B8A",
"r.	c #38607C",
"s.	c #2F506A",
"t.	c #233F53",
"u.	c #1C2F3B",
"v.	c #38393C",
"w.	c #303030",
"x.	c #454545",
"y.	c #464748",
"z.	c #22313D",
"A.	c #203D51",
"B.	c #2A4E67",
"C.	c #345E7D",
"D.	c #3B6A8D",
"E.	c #3F7298",
"F.	c #41769D",
"G.	c #41789E",
"H.	c #40749A",
"I.	c #3D6D91",
"J.	c #366181",
"K.	c #2C526D",
"L.	c #234156",
"M.	c #243541",
"N.	c #464647",
"O.	c #555555",
"P.	c #303C45",
"Q.	c #213D52",
"R.	c #2A506A",
"S.	c #2D5571",
"T.	c #274962",
"U.	c #24445B",
"V.	c #25465D",
"W.	c #26475D",
"X.	c #25455B",
"Y.	c #294B64",
"Z.	c #305976",
"`.	c #2D5370",
" +	c #244257",
".+	c #313E48",
"++	c #464746",
"@+	c #606060",
"#+	c #4C5054",
"$+	c #294D66",
"%+	c #274960",
"&+	c #94E2FF",
"*+	c #A0F1FF",
"=+	c #A4FAFF",
"-+	c #A4FBFF",
";+	c #A1F5FF",
">+	c #96E8FF",
",+	c #284B65",
"'+	c #2C516C",
")+	c #284254",
"!+	c #4B5155",
"~+	c #2C2C2C",
"{+	c #5C5B5B",
"]+	c #6C6C6B",
"^+	c #455159",
"/+	c #26465C",
"(+	c #2A4C67",
"_+	c #223F55",
":+	c #24435A",
"<+	c #234157",
"[+	c #25475E",
"}+	c #2C516B",
"|+	c #284A62",
"1+	c #46525B",
"2+	c #6B6B6B",
"3+	c #5C5B5C",
"4+	c #444444",
"5+	c #747473",
"6+	c #777777",
"7+	c #4D5A63",
"8+	c #314F65",
"9+	c #305977",
"0+	c #366485",
"a+	c #3A6B8E",
"b+	c #3A6B90",
"c+	c #376689",
"d+	c #325C7B",
"e+	c #325269",
"f+	c #4D5B65",
"g+	c #787777",
"h+	c #292929",
"i+	c #7D7E7D",
"j+	c #838382",
"k+	c #666E74",
"l+	c #4C606E",
"m+	c #3E5C71",
"n+	c #375C77",
"o+	c #385D78",
"p+	c #3F5E74",
"q+	c #4D6170",
"r+	c #676F75",
"s+	c #838383",
"t+	c #7D7D7D",
"u+	c #49494A",
"v+	c #737474",
"w+	c #8E8E8D",
"x+	c #8D8D8E",
"y+	c #878989",
"z+	c #7C8184",
"A+	c #7B8085",
"B+	c #87898A",
"C+	c #8E8E8E",
"D+	c #8E8D8D",
"E+	c #747374",
"F+	c #494949",
"G+	c #272727",
"H+	c #333333",
"I+	c #535353",
"J+	c #6E6D6E",
"K+	c #818180",
"L+	c #8C8C8C",
"M+	c #6E6E6E",
"N+	c #282828",
"O+	c #282827",
"P+	c #3A3A3A",
"Q+	c #393A3A",
"R+	c #323233",
"S+	c #262626",
"T+	c #141414",
". . . . . . . . . . . . . . . . . . . . . . . . . . ",
"+ + + + + + + + + + + + + + + + + + + + + + + + + + ",
"@ @ @ @ @ @ @ @ @ @ # $ % & * + @ @ @ @ @ @ @ @ @ @ ",
"= = = = = = = = - ; > , ' ' , > ) - = = = = = = = = ",
"= = = = = = = ! ~ { { ] ^ ^ ] { { ~ / = = = = = = = ",
"( ( ( ( ( ( _ : < [ } | 1 1 2 3 4 5 6 7 ( ( ( ( ( ( ",
"8 8 8 8 8 9 0 a b c d e f g e h i j k 0 9 8 8 8 8 8 ",
"l l l l l m 0 n o p q r s t u v w x y 0 z l l l l l ",
"A A A A A , B C D E F G H I J K L M N O , A A A A A ",
"P P P P Q R S T U V W X Y Z `  ...+.@.#.R Q P P P P ",
"$.$.$.$.%.&.*.=.-.;.>.,.'.).!.~.{.].^./.(._.$.$.$.$.",
":.:.:.:.<.[.}.|.1.2.3.4.5.6.7.8.9.0.a.b.c.d.:.:.:.:.",
"e.e.e.e.f.g.h.i.j.k.l.m.n.o.p.q.r.s.t.u.v.f.e.e.e.e.",
"w.w.w.w.x.y.z.A.B.C.D.E.F.G.H.I.J.K.L.M.y.x.w.w.w.w.",
"> > > > N.O.P.Q.R.S.T.U.V.W.X.Y.Z.`. +.+O.++> > > > ",
"> > > > > @+#+a.$+%+&+*+=+-+;+>+,+'+)+!+@+> > > > > ",
"~+~+~+~+~+{+]+^+/+(+X._+:+U.<+[+}+|+1+2+3+~+~+~+~+~+",
"~+~+~+~+~+4+5+6+7+8+9+0+a+b+c+d+e+f+g+l 4+~+~+~+~+~+",
"h+h+h+h+h+h+; i+j+k+l+m+n+o+p+q+r+s+t+; h+h+h+h+h+h+",
"h+h+h+h+h+h+h+u+v+w+x+y+z+A+B+C+D+E+F+h+h+h+h+h+h+h+",
"G+G+G+G+G+G+G+G+H+I+J+K+L+L+( M+I+H+G+G+G+G+G+G+G+G+",
"N+N+N+N+N+N+N+N+N+N+O+H+P+Q+R+O+N+N+N+N+N+N+N+N+N+N+",
"S+S+S+S+S+S+S+S+S+S+S+S+S+S+S+S+S+S+S+S+S+S+S+S+S+S+",
"T+T+T+T+T+T+T+T+T+T+T+T+T+T+T+T+T+T+T+T+T+T+T+T+T+T+"};
