/* XPM */
static char * left_inactive_xpm[] = {
"8 1 4 1",
" 	c None",
".	c #3B3C3E",
"+	c #262626",
"@	c #141414",
".++++++@"};
