/* XPM */
static char * maximize_inactive_xpm[] = {
"26 24 199 2",
"  	c None",
". 	c #9C9C9C",
"+ 	c #595959",
"@ 	c #7A7A7A",
"# 	c #5A5A59",
"$ 	c #525151",
"% 	c #4C4D4C",
"& 	c #4C4C4C",
"* 	c #515151",
"= 	c #595A5A",
"- 	c #8A8A8A",
"; 	c #6F6F6F",
"> 	c #4D4D4C",
", 	c #2E2E2E",
"' 	c #1A1A1A",
") 	c #0E0E0E",
"! 	c #4D4D4D",
"~ 	c #5E5E5F",
"{ 	c #242424",
"] 	c #000000",
"^ 	c #010101",
"/ 	c #5E5E5E",
"( 	c #818181",
"_ 	c #565656",
": 	c #0D0D0D",
"< 	c #050505",
"[ 	c #040506",
"} 	c #060808",
"| 	c #151617",
"1 	c #1D1E1F",
"2 	c #161617",
"3 	c #040606",
"4 	c #060505",
"5 	c #0E0E0D",
"6 	c #7B7B7B",
"7 	c #5D5D5D",
"8 	c #121212",
"9 	c #0B0C0C",
"0 	c #111213",
"a 	c #353536",
"b 	c #535455",
"c 	c #6A6A6B",
"d 	c #757576",
"e 	c #757575",
"f 	c #555656",
"g 	c #111313",
"h 	c #0B0B0B",
"i 	c #737373",
"j 	c #2D2D2E",
"k 	c #171819",
"l 	c #434444",
"m 	c #6A6B6C",
"n 	c #838383",
"o 	c #858585",
"p 	c #878787",
"q 	c #868686",
"r 	c #848484",
"s 	c #6B6B6C",
"t 	c #444445",
"u 	c #171919",
"v 	c #696969",
"w 	c #141515",
"x 	c #313233",
"y 	c #5B5C5D",
"z 	c #6C6C6C",
"A 	c #6E6E6E",
"B 	c #707070",
"C 	c #717171",
"D 	c #6D6D6D",
"E 	c #5C5D5D",
"F 	c #141516",
"G 	c #626262",
"H 	c #3F3F3F",
"I 	c #232222",
"J 	c #17191A",
"K 	c #363637",
"L 	c #555555",
"M 	c #5C5C5C",
"N 	c #5F5F5F",
"O 	c #5A5A5A",
"P 	c #575757",
"Q 	c #363738",
"R 	c #3F3F3E",
"S 	c #585858",
"T 	c #373637",
"U 	c #2A2A2A",
"V 	c #161819",
"W 	c #2D2E2F",
"X 	c #444444",
"Y 	c #494949",
"Z 	c #4F4F4F",
"` 	c #505050",
" .	c #4E4E4E",
"..	c #4A4A4A",
"+.	c #464646",
"@.	c #2E2F30",
"#.	c #2A2A29",
"$.	c #373736",
"%.	c #393939",
"&.	c #121517",
"*.	c #222324",
"=.	c #343434",
"-.	c #3D3D3D",
";.	c #414141",
">.	c #454545",
",.	c #424242",
"'.	c #363636",
").	c #242526",
"!.	c #141719",
"~.	c #2D2E30",
"{.	c #3A3939",
"].	c #313131",
"^.	c #414142",
"/.	c #363737",
"(.	c #15191A",
"_.	c #1C1D1E",
":.	c #292929",
"<.	c #333333",
"[.	c #3B3B3B",
"}.	c #404040",
"|.	c #3E3E3E",
"1.	c #3C3C3C",
"2.	c #353535",
"3.	c #2B2B2B",
"4.	c #1F2021",
"5.	c #171B1C",
"6.	c #373738",
"7.	c #303030",
"8.	c #1D2023",
"9.	c #262626",
"0.	c #2F2F2F",
"a.	c #373737",
"b.	c #383838",
"c.	c #1E2225",
"d.	c #464647",
"e.	c #2B2F32",
"f.	c #282828",
"g.	c #323232",
"h.	c #202122",
"i.	c #2D3033",
"j.	c #606060",
"k.	c #4A4B4D",
"l.	c #202427",
"m.	c #252627",
"n.	c #272829",
"o.	c #222729",
"p.	c #494B4D",
"q.	c #2C2C2C",
"r.	c #5C5B5B",
"s.	c #6C6C6B",
"t.	c #404448",
"u.	c #212325",
"v.	c #2A2B2C",
"w.	c #2C2D2E",
"x.	c #242628",
"y.	c #414548",
"z.	c #6B6B6B",
"A.	c #5C5B5C",
"B.	c #747473",
"C.	c #777777",
"D.	c #474C4F",
"E.	c #2B2E30",
"F.	c #323334",
"G.	c #2C2F31",
"H.	c #474C50",
"I.	c #787777",
"J.	c #4D4E4D",
"K.	c #7D7E7D",
"L.	c #838382",
"M.	c #636668",
"N.	c #454B4E",
"O.	c #373C3E",
"P.	c #313436",
"Q.	c #313536",
"R.	c #383D3F",
"S.	c #464B4F",
"T.	c #646769",
"U.	c #7D7D7D",
"V.	c #4E4D4D",
"W.	c #737474",
"X.	c #8E8E8D",
"Y.	c #8D8D8E",
"Z.	c #868787",
"`.	c #797C7D",
" +	c #787B7D",
".+	c #868788",
"++	c #8E8E8E",
"@+	c #8E8D8D",
"#+	c #747374",
"$+	c #494A49",
"%+	c #272727",
"&+	c #535253",
"*+	c #818180",
"=+	c #8C8C8C",
"-+	c #535353",
";+	c #333332",
">+	c #393A3A",
",+	c #39393A",
"'+	c #141414",
". . . . . . . . . . . . . . . . . . . . . . . . . . ",
"+ + + + + + + + + + + + + + + + + + + + + + + + + + ",
"@ @ @ @ @ @ @ @ @ @ # $ % & * = @ @ @ @ @ @ @ @ @ @ ",
"- - - - - - - - ; > , ' ) ) ' , ! ; - - - - - - - - ",
"- - - - - - - ~ { ] ] ] ^ ^ ] ] ] { / - - - - - - - ",
"( ( ( ( ( ( _ : < [ } | 1 1 2 } 3 4 5 _ ( ( ( ( ( ( ",
"6 6 6 6 6 7 8 9 0 a b c d e c f a g h 8 7 6 6 6 6 6 ",
"i i i i i j 8 k l m n o p q q r s t u 8 , i i i i i ",
"v v v v v ' w x y z A B C C B ; D E x F ' v v v v v ",
"G G G G H I J K L + M 7 N N / M O P Q J I R G G G G ",
"S S S S T U V W X Y ! Z ` ` Z  ...+.@.J #.$.S S S S ",
"` ` ` ` %.W &.*.=.-.;.X >.+.>.,.H '.).!.~.{.` ` ` ` ",
"].].].].^./.(._.:.<.[.-.}.}.|.1.2.3.4.5.6.^.].].].].",
"7.7.7.7.>.+.8.1 9.0.a.[.1.-.[.b.].:.4.c.d.>.7.7.7.7.",
", , , , +.L e.1 f.7.a.[.-.|.-.b.g.U h.i.L +., , , , ",
", , , , , j.k.l.m., 2.1.|.|.1.a.].n.o.p.j., , , , , ",
"q.q.q.q.q.r.s.t.u.v.<.b.[.1.%.=.w.x.y.z.A.q.q.q.q.q.",
"q.q.q.q.q.X B.C.D.E.w.x '.'.F.w.G.H.I.i X q.q.q.q.q.",
":.:.:.:.:.:.J.K.L.M.N.O.P.Q.R.S.T.n U.V.:.:.:.:.:.:.",
":.:.:.:.:.:.:.Y W.X.Y.Z.`. +.+++@+#+$+:.:.:.:.:.:.:.",
"%+%+%+%+%+%+%+%+<.&+A *+=+=+( A -+;+%+%+%+%+%+%+%+%+",
"f.f.f.f.f.f.f.f.f.f.f.<.>+,+;+f.f.f.f.f.f.f.f.f.f.f.",
"9.9.9.9.9.9.9.9.9.9.9.9.9.9.9.9.9.9.9.9.9.9.9.9.9.9.",
"'+'+'+'+'+'+'+'+'+'+'+'+'+'+'+'+'+'+'+'+'+'+'+'+'+'+"};
