/* XPM */
static char * maximize_pressed_xpm[] = {
"26 24 267 2",
"  	c None",
". 	c #9C9C9C",
"+ 	c #595959",
"@ 	c #7A7A7A",
"# 	c #5A5A5A",
"$ 	c #525251",
"% 	c #4D4C4C",
"& 	c #4C4D4C",
"* 	c #515151",
"= 	c #8A8A8A",
"- 	c #6F6F6F",
"; 	c #4D4D4D",
"> 	c #2E2E2E",
", 	c #1A1A1A",
"' 	c #0E0E0E",
") 	c #4D4D4C",
"! 	c #5E5E5E",
"~ 	c #242424",
"{ 	c #000000",
"] 	c #000001",
"^ 	c #010102",
"/ 	c #5E5E5F",
"( 	c #818181",
"_ 	c #565656",
": 	c #0D0D0D",
"< 	c #050505",
"[ 	c #050607",
"} 	c #080B0E",
"| 	c #171B1E",
"1 	c #1F2529",
"2 	c #171B1F",
"3 	c #080C0F",
"4 	c #050708",
"5 	c #060505",
"6 	c #0E0E0D",
"7 	c #565657",
"8 	c #7B7B7B",
"9 	c #5D5D5D",
"0 	c #121212",
"a 	c #0B0C0C",
"b 	c #131617",
"c 	c #353B3F",
"d 	c #565D61",
"e 	c #6B7277",
"f 	c #767C81",
"g 	c #767D81",
"h 	c #565D62",
"i 	c #363C41",
"j 	c #141618",
"k 	c #0B0B0B",
"l 	c #737373",
"m 	c #2D2E2E",
"n 	c #1A1D1F",
"o 	c #444B4E",
"p 	c #686D71",
"q 	c #808488",
"r 	c #83888B",
"s 	c #82878B",
"t 	c #82878A",
"u 	c #7F8487",
"v 	c #686E72",
"w 	c #434A50",
"x 	c #1A1E20",
"y 	c #2D2D2D",
"z 	c #696969",
"A 	c #151719",
"B 	c #323A40",
"C 	c #596065",
"D 	c #829EB2",
"E 	c #87A8BE",
"F 	c #8AAEC8",
"G 	c #8EB3CA",
"H 	c #8EB4C9",
"I 	c #8BB0C8",
"J 	c #88AAC3",
"K 	c #82A0B4",
"L 	c #5A6266",
"M 	c #333B42",
"N 	c #151819",
"O 	c #626262",
"P 	c #3F3F3F",
"Q 	c #232222",
"R 	c #191F23",
"S 	c #37434C",
"T 	c #4F575E",
"U 	c #77A4BF",
"V 	c #80B1CA",
"W 	c #84BAD3",
"X 	c #87BDD6",
"Y 	c #89BED7",
"Z 	c #87BCD5",
"` 	c #82B5CE",
" .	c #7BAAC4",
"..	c #50585F",
"+.	c #384650",
"@.	c #1A2125",
"#.	c #585858",
"$.	c #373637",
"%.	c #2A2A2B",
"&.	c #19232C",
"*.	c #2F414D",
"=.	c #3C4750",
"-.	c #76B1CB",
";.	c #383F45",
">.	c #425260",
",.	c #425461",
"'.	c #425561",
").	c #425361",
"!.	c #384046",
"~.	c #7AB6D2",
"{.	c #3C4951",
"].	c #304250",
"^.	c #1A262D",
"/.	c #2A2B2A",
"(.	c #373736",
"_.	c #505050",
":.	c #393939",
"<.	c #2E3032",
"[.	c #172730",
"}.	c #243A4A",
"|.	c #283843",
"1.	c #74BADD",
"2.	c #304553",
"3.	c #476E88",
"4.	c #49708D",
"5.	c #49718D",
"6.	c #496F8B",
"7.	c #314856",
"8.	c #79BEE2",
"9.	c #293A45",
"0.	c #263E4F",
"a.	c #182835",
"b.	c #2E3033",
"c.	c #3A3939",
"d.	c #313131",
"e.	c #414142",
"f.	c #37393A",
"g.	c #1A2B38",
"h.	c #213A4D",
"i.	c #1B2E3B",
"j.	c #78C2EC",
"k.	c #294052",
"l.	c #426F90",
"m.	c #447393",
"n.	c #447395",
"o.	c #437093",
"p.	c #2A4254",
"q.	c #7DC9F3",
"r.	c #1C303F",
"s.	c #233F53",
"t.	c #1C2F3B",
"u.	c #38393C",
"v.	c #303030",
"w.	c #454545",
"x.	c #464748",
"y.	c #22313D",
"z.	c #203D51",
"A.	c #172C3B",
"B.	c #7ECBFA",
"C.	c #233E51",
"D.	c #3F7298",
"E.	c #41769D",
"F.	c #41789E",
"G.	c #40749A",
"H.	c #234052",
"I.	c #83D0FF",
"J.	c #192E3E",
"K.	c #234156",
"L.	c #243541",
"M.	c #464647",
"N.	c #555555",
"O.	c #303C45",
"P.	c #213D52",
"Q.	c #172D3D",
"R.	c #80D0FE",
"S.	c #11202B",
"T.	c #24445B",
"U.	c #25465D",
"V.	c #26475D",
"W.	c #25455B",
"X.	c #11212B",
"Y.	c #87D6FF",
"Z.	c #192F3F",
"`.	c #244257",
" +	c #313E48",
".+	c #464746",
"++	c #606060",
"@+	c #4C5054",
"#+	c #1C3445",
"$+	c #7DCDFA",
"%+	c #94E2FF",
"&+	c #A0F1FF",
"*+	c #A4FAFF",
"=+	c #A4FBFF",
"-+	c #A1F5FF",
";+	c #96E8FF",
">+	c #82D1FF",
",+	c #1E3648",
"'+	c #284254",
")+	c #4B5155",
"!+	c #2C2C2C",
"~+	c #5C5B5B",
"{+	c #6C6C6B",
"]+	c #455159",
"^+	c #223E52",
"/+	c #203A4E",
"(+	c #203A4D",
"_+	c #223F55",
":+	c #24435A",
"<+	c #234157",
"[+	c #203C50",
"}+	c #46525B",
"|+	c #6B6B6B",
"1+	c #5C5B5C",
"2+	c #444444",
"3+	c #747473",
"4+	c #777777",
"5+	c #4D5A63",
"6+	c #314F65",
"7+	c #305977",
"8+	c #366485",
"9+	c #3A6B8E",
"0+	c #3A6B90",
"a+	c #376689",
"b+	c #325C7B",
"c+	c #325269",
"d+	c #4D5B65",
"e+	c #787777",
"f+	c #292929",
"g+	c #7D7E7D",
"h+	c #838382",
"i+	c #666E74",
"j+	c #4C606E",
"k+	c #3E5C71",
"l+	c #375C77",
"m+	c #385D78",
"n+	c #3F5E74",
"o+	c #4D6170",
"p+	c #676F75",
"q+	c #838383",
"r+	c #7D7D7D",
"s+	c #49494A",
"t+	c #737474",
"u+	c #8E8E8D",
"v+	c #8D8D8E",
"w+	c #878989",
"x+	c #7C8184",
"y+	c #7B8085",
"z+	c #87898A",
"A+	c #8E8E8E",
"B+	c #8E8D8D",
"C+	c #747374",
"D+	c #494949",
"E+	c #272727",
"F+	c #333333",
"G+	c #535353",
"H+	c #6E6D6E",
"I+	c #818180",
"J+	c #8C8C8C",
"K+	c #6E6E6E",
"L+	c #282828",
"M+	c #282827",
"N+	c #3A3A3A",
"O+	c #393A3A",
"P+	c #323233",
"Q+	c #262626",
"R+	c #141414",
". . . . . . . . . . . . . . . . . . . . . . . . . . ",
"+ + + + + + + + + + + + + + + + + + + + + + + + + + ",
"@ @ @ @ @ @ @ @ @ @ # $ % & * + @ @ @ @ @ @ @ @ @ @ ",
"= = = = = = = = - ; > , ' ' , > ) - = = = = = = = = ",
"= = = = = = = ! ~ { { ] ^ ^ ] { { ~ / = = = = = = = ",
"( ( ( ( ( ( _ : < [ } | 1 1 2 3 4 5 6 7 ( ( ( ( ( ( ",
"8 8 8 8 8 9 0 a b c d e f g e h i j k 0 9 8 8 8 8 8 ",
"l l l l l m 0 n o p q r s s t u v w x 0 y l l l l l ",
"z z z z z , A B C D E F G H I J K L M N , z z z z z ",
"O O O O P Q R S T U V W X Y Z `  ...+.@.Q P O O O O ",
"#.#.#.#.$.%.&.*.=.-.;.>.,.'.).!.~.{.].^./.(.#.#.#.#.",
"_._._._.:.<.[.}.|.1.2.3.4.5.6.7.8.9.0.a.b.c._._._._.",
"d.d.d.d.e.f.g.h.i.j.k.l.m.n.o.p.q.r.s.t.u.e.d.d.d.d.",
"v.v.v.v.w.x.y.z.A.B.C.D.E.F.G.H.I.J.K.L.x.w.v.v.v.v.",
"> > > > M.N.O.P.Q.R.S.T.U.V.W.X.Y.Z.`. +N..+> > > > ",
"> > > > > ++@+0.#+$+%+&+*+=+-+;+>+,+'+)+++> > > > > ",
"!+!+!+!+!+~+{+]+^+/+(+_+:+T.<+[+z.<+}+|+1+!+!+!+!+!+",
"!+!+!+!+!+2+3+4+5+6+7+8+9+0+a+b+c+d+e+l 2+!+!+!+!+!+",
"f+f+f+f+f+f+; g+h+i+j+k+l+m+n+o+p+q+r+; f+f+f+f+f+f+",
"f+f+f+f+f+f+f+s+t+u+v+w+x+y+z+A+B+C+D+f+f+f+f+f+f+f+",
"E+E+E+E+E+E+E+E+F+G+H+I+J+J+( K+G+F+E+E+E+E+E+E+E+E+",
"L+L+L+L+L+L+L+L+L+L+M+F+N+O+P+M+L+L+L+L+L+L+L+L+L+L+",
"Q+Q+Q+Q+Q+Q+Q+Q+Q+Q+Q+Q+Q+Q+Q+Q+Q+Q+Q+Q+Q+Q+Q+Q+Q+Q+",
"R+R+R+R+R+R+R+R+R+R+R+R+R+R+R+R+R+R+R+R+R+R+R+R+R+R+"};
