/* XPM */
static char * menu_inactive_xpm[] = {
"26 24 265 2",
"  	c None",
". 	c #9C9C9C",
"+ 	c #595959",
"@ 	c #7A7A7A",
"# 	c #5A5A5A",
"$ 	c #525251",
"% 	c #4D4C4C",
"& 	c #4C4D4C",
"* 	c #515151",
"= 	c #8A8A8A",
"- 	c #6F6F6F",
"; 	c #4C4C4C",
"> 	c #242424",
", 	c #0A0A0A",
"' 	c #010101",
") 	c #4C4C4B",
"! 	c #5E5E5E",
"~ 	c #1F1F1F",
"{ 	c #000000",
"] 	c #0E1111",
"^ 	c #1F2122",
"/ 	c #2A2B2C",
"( 	c #0E1112",
"_ 	c #000001",
": 	c #5E5E5F",
"< 	c #818181",
"[ 	c #565656",
"} 	c #0C0C0C",
"| 	c #070707",
"1 	c #202223",
"2 	c #3C3E3F",
"3 	c #545658",
"4 	c #646567",
"5 	c #3C3E40",
"6 	c #202224",
"7 	c #080707",
"8 	c #0D0D0C",
"9 	c #565657",
"0 	c #7B7B7B",
"a 	c #5D5D5D",
"b 	c #121212",
"c 	c #121313",
"d 	c #353739",
"e 	c #686B6C",
"f 	c #86888A",
"g 	c #959799",
"h 	c #999C9E",
"i 	c #95989A",
"j 	c #86898B",
"k 	c #686C6D",
"l 	c #34383B",
"m 	c #111212",
"n 	c #737373",
"o 	c #2D2E2E",
"p 	c #2D3031",
"q 	c #595C5E",
"r 	c #828688",
"s 	c #A2A5A7",
"t 	c #A2A6A8",
"u 	c #999D9F",
"v 	c #828689",
"w 	c #585D60",
"x 	c #2E3032",
"y 	c #2D2D2D",
"z 	c #696969",
"A 	c #1A1A1A",
"B 	c #171A1C",
"C 	c #414547",
"D 	c #707478",
"E 	c #83888B",
"F 	c #878D90",
"G 	c #868C90",
"H 	c #868D91",
"I 	c #878E91",
"J 	c #888D91",
"K 	c #83878B",
"L 	c #717579",
"M 	c #424648",
"N 	c #181B1C",
"O 	c #626262",
"P 	c #3F3F3F",
"Q 	c #232222",
"R 	c #1F2526",
"S 	c #42484B",
"T 	c #676D71",
"U 	c #6D7479",
"V 	c #6D767B",
"W 	c #6E777D",
"X 	c #6D767D",
"Y 	c #6E777C",
"Z 	c #6E777B",
"` 	c #686E72",
" .	c #43484D",
"..	c #202528",
"+.	c #585858",
"@.	c #373637",
"#.	c #2A2A2B",
"$.	c #202629",
"%.	c #3A4146",
"&.	c #565E64",
"*.	c #566067",
"=.	c #57626A",
"-.	c #58656C",
";.	c #59666D",
">.	c #59656D",
",.	c #58646D",
"'.	c #58636B",
").	c #586268",
"!.	c #565F65",
"~.	c #3A4248",
"{.	c #20262A",
"].	c #2A2B2A",
"^.	c #373736",
"/.	c #505050",
"(.	c #393939",
"_.	c #1A2125",
":.	c #2B343A",
"<.	c #414B53",
"[.	c #455159",
"}.	c #48555F",
"|.	c #495863",
"1.	c #4A5A63",
"2.	c #4A5A64",
"3.	c #485863",
"4.	c #475661",
"5.	c #46535C",
"6.	c #414E54",
"7.	c #2B363D",
"8.	c #1B2228",
"9.	c #2E3033",
"0.	c #3A3939",
"a.	c #313131",
"b.	c #414142",
"c.	c #37393A",
"d.	c #171F25",
"e.	c #1D272F",
"f.	c #2F3C45",
"g.	c #364750",
"h.	c #3A4C58",
"i.	c #3C4F5C",
"j.	c #3D525D",
"k.	c #3D515D",
"l.	c #3D505C",
"m.	c #3B4E59",
"n.	c #374852",
"o.	c #2F3F47",
"p.	c #1F2A32",
"q.	c #182127",
"r.	c #38393C",
"s.	c #303030",
"t.	c #454545",
"u.	c #464748",
"v.	c #1D262D",
"w.	c #13202A",
"x.	c #22313B",
"y.	c #2A3D48",
"z.	c #2F4351",
"A.	c #324756",
"B.	c #344A58",
"C.	c #334958",
"D.	c #334957",
"E.	c #304553",
"F.	c #2B3E4A",
"G.	c #23343E",
"H.	c #16242C",
"I.	c #1F2930",
"J.	c #2E2E2E",
"K.	c #464647",
"L.	c #555555",
"M.	c #2C353C",
"N.	c #0E1E28",
"O.	c #1B2C36",
"P.	c #223642",
"Q.	c #283D4D",
"R.	c #2B4253",
"S.	c #2D4554",
"T.	c #2C4555",
"U.	c #2C4454",
"V.	c #293F4E",
"W.	c #233745",
"X.	c #1C2E3A",
"Y.	c #10222A",
"Z.	c #2D373E",
"`.	c #464746",
" +	c #606060",
".+	c #494C50",
"++	c #102029",
"@+	c #1B2A35",
"#+	c #203440",
"$+	c #253B4B",
"%+	c #284051",
"&+	c #294353",
"*+	c #2A4454",
"=+	c #294252",
"-+	c #273D4C",
";+	c #223643",
">+	c #1B2D38",
",+	c #13242C",
"'+	c #484D51",
")+	c #2C2C2C",
"!+	c #5C5B5B",
"~+	c #6C6C6B",
"{+	c #354046",
"]+	c #10222E",
"^+	c #1B2F3C",
"/+	c #233947",
"(+	c #273F4F",
"_+	c #294352",
":+	c #274050",
"<+	c #243A49",
"[+	c #1D313F",
"}+	c #112531",
"|+	c #364148",
"1+	c #6B6B6B",
"2+	c #5C5B5C",
"3+	c #444444",
"4+	c #747473",
"5+	c #727373",
"6+	c #343F46",
"7+	c #182C38",
"8+	c #1A313F",
"9+	c #213847",
"0+	c #233C4C",
"a+	c #203948",
"b+	c #1A3341",
"c+	c #192E3B",
"d+	c #354148",
"e+	c #292929",
"f+	c #4D4D4D",
"g+	c #7D7E7D",
"h+	c #797A79",
"i+	c #444D53",
"j+	c #21323C",
"k+	c #203340",
"l+	c #203543",
"m+	c #203541",
"n+	c #21333E",
"o+	c #454E54",
"p+	c #797A7A",
"q+	c #7D7D7D",
"r+	c #49494A",
"s+	c #737474",
"t+	c #8D8D8C",
"u+	c #787A7C",
"v+	c #565D62",
"w+	c #37454E",
"x+	c #575E63",
"y+	c #797B7C",
"z+	c #8D8C8C",
"A+	c #747374",
"B+	c #494949",
"C+	c #272727",
"D+	c #333333",
"E+	c #535353",
"F+	c #6E6D6E",
"G+	c #818180",
"H+	c #8C8C8C",
"I+	c #6E6E6E",
"J+	c #282828",
"K+	c #282827",
"L+	c #3A3A3A",
"M+	c #393A3A",
"N+	c #323233",
"O+	c #262626",
"P+	c #141414",
". . . . . . . . . . . . . . . . . . . . . . . . . . ",
"+ + + + + + + + + + + + + + + + + + + + + + + + + + ",
"@ @ @ @ @ @ @ @ @ @ # $ % & * + @ @ @ @ @ @ @ @ @ @ ",
"= = = = = = = = - ; > , ' ' , > ) - = = = = = = = = ",
"= = = = = = = ! ~ { ] ^ / / ^ ( _ ~ : = = = = = = = ",
"< < < < < < [ } | 1 2 3 4 4 3 5 6 7 8 9 < < < < < < ",
"0 0 0 0 0 a b c d e f g h h i j k l m b a 0 0 0 0 0 ",
"n n n n n o b p q r h s t t t u v w x b y n n n n n ",
"z z z z z A B C D E F G H H I J K L M N A z z z z z ",
"O O O O P Q R S T U V V W X Y Z U `  ...Q P O O O O ",
"+.+.+.+.@.#.$.%.&.*.=.-.;.>.,.'.).!.~.{.].^.+.+.+.+.",
"/./././.(.x _.:.<.[.}.|.1.2.3.4.5.6.7.8.9.0././././.",
"a.a.a.a.b.c.d.e.f.g.h.i.j.k.l.m.n.o.p.q.r.b.a.a.a.a.",
"s.s.s.s.t.u.v.w.x.y.z.A.B.C.D.E.F.G.H.I.u.t.s.s.s.s.",
"J.J.J.J.K.L.M.N.O.P.Q.R.S.T.U.V.W.X.Y.Z.L.`.J.J.J.J.",
"J.J.J.J.J. +.+++@+#+$+%+&+*+=+-+;+>+,+'+ +J.J.J.J.J.",
")+)+)+)+)+!+~+{+]+^+/+(+_+&+:+<+[+}+|+1+2+)+)+)+)+)+",
")+)+)+)+)+3+4+5+6+7+8+9+0+0+a+b+c+d+n n 3+)+)+)+)+)+",
"e+e+e+e+e+e+f+g+h+i+j+k+l+l+m+n+o+p+q+f+e+e+e+e+e+e+",
"e+e+e+e+e+e+e+r+s+t+u+v+w+w+x+y+z+A+B+e+e+e+e+e+e+e+",
"C+C+C+C+C+C+C+C+D+E+F+G+H+H+< I+E+D+C+C+C+C+C+C+C+C+",
"J+J+J+J+J+J+J+J+J+J+K+D+L+M+N+K+J+J+J+J+J+J+J+J+J+J+",
"O+O+O+O+O+O+O+O+O+O+O+O+O+O+O+O+O+O+O+O+O+O+O+O+O+O+",
"P+P+P+P+P+P+P+P+P+P+P+P+P+P+P+P+P+P+P+P+P+P+P+P+P+P+"};
