/* XPM */
static char * shade_inactive_xpm[] = {
"26 24 202 2",
"  	c None",
". 	c #9C9C9C",
"+ 	c #595959",
"@ 	c #7A7A7A",
"# 	c #5A5A5A",
"$ 	c #525251",
"% 	c #4D4C4C",
"& 	c #4C4D4C",
"* 	c #515151",
"= 	c #8A8A8A",
"- 	c #6F6F6F",
"; 	c #4D4D4D",
"> 	c #2E2E2E",
", 	c #1A1A1A",
"' 	c #0E0E0E",
") 	c #4D4D4C",
"! 	c #5E5E5E",
"~ 	c #242424",
"{ 	c #000000",
"] 	c #010101",
"^ 	c #5E5E5F",
"/ 	c #818181",
"( 	c #565656",
"_ 	c #0D0D0D",
": 	c #050505",
"< 	c #040506",
"[ 	c #060808",
"} 	c #151617",
"| 	c #1D1E1F",
"1 	c #161617",
"2 	c #040606",
"3 	c #060505",
"4 	c #0E0E0D",
"5 	c #565657",
"6 	c #7B7B7B",
"7 	c #5D5D5D",
"8 	c #121212",
"9 	c #0B0C0C",
"0 	c #111213",
"a 	c #353536",
"b 	c #535455",
"c 	c #6A6A6B",
"d 	c #757576",
"e 	c #757575",
"f 	c #555656",
"g 	c #111313",
"h 	c #0B0B0B",
"i 	c #737373",
"j 	c #2D2E2E",
"k 	c #171819",
"l 	c #434444",
"m 	c #6A6B6C",
"n 	c #838383",
"o 	c #858585",
"p 	c #878787",
"q 	c #868686",
"r 	c #848484",
"s 	c #6B6B6C",
"t 	c #444445",
"u 	c #17191A",
"v 	c #2D2D2D",
"w 	c #696969",
"x 	c #141617",
"y 	c #313233",
"z 	c #5B5C5D",
"A 	c #6C6C6C",
"B 	c #6E6E6E",
"C 	c #707070",
"D 	c #717171",
"E 	c #6D6D6D",
"F 	c #5C5D5D",
"G 	c #626262",
"H 	c #3F3F3F",
"I 	c #232222",
"J 	c #181A1C",
"K 	c #363637",
"L 	c #555555",
"M 	c #5C5C5C",
"N 	c #5F5F5F",
"O 	c #575757",
"P 	c #363738",
"Q 	c #181B1C",
"R 	c #585858",
"S 	c #373637",
"T 	c #2A2A2B",
"U 	c #17181A",
"V 	c #2D2E2F",
"W 	c #444444",
"X 	c #494949",
"Y 	c #4F4F4F",
"Z 	c #505050",
"` 	c #4E4E4E",
" .	c #4A4A4A",
"..	c #464646",
"+.	c #2E2F30",
"@.	c #181A1B",
"#.	c #2A2B2A",
"$.	c #373736",
"%.	c #393939",
"&.	c #2E3032",
"*.	c #131517",
"=.	c #222324",
"-.	c #343434",
";.	c #3D3D3D",
">.	c #414141",
",.	c #454545",
"'.	c #424242",
").	c #363636",
"!.	c #242526",
"~.	c #151719",
"{.	c #2E3033",
"].	c #3A3939",
"^.	c #313131",
"/.	c #414142",
"(.	c #37393A",
"_.	c #161A1C",
":.	c #1C1D1E",
"<.	c #292929",
"[.	c #333333",
"}.	c #3B3B3B",
"|.	c #404040",
"1.	c #3E3E3E",
"2.	c #3C3C3C",
"3.	c #353535",
"4.	c #2B2B2B",
"5.	c #1F2021",
"6.	c #181C1E",
"7.	c #38393C",
"8.	c #303030",
"9.	c #464748",
"0.	c #1F2429",
"a.	c #262626",
"b.	c #2F2F2F",
"c.	c #373737",
"d.	c #383838",
"e.	c #21272B",
"f.	c #464647",
"g.	c #2E363C",
"h.	c #282828",
"i.	c #323232",
"j.	c #2A2A2A",
"k.	c #202122",
"l.	c #30383E",
"m.	c #464746",
"n.	c #606060",
"o.	c #4C5054",
"p.	c #22272C",
"q.	c #252627",
"r.	c #272829",
"s.	c #242B2E",
"t.	c #4B5155",
"u.	c #2C2C2C",
"v.	c #5C5B5B",
"w.	c #6C6C6B",
"x.	c #444D53",
"y.	c #212325",
"z.	c #2A2B2C",
"A.	c #2C2D2E",
"B.	c #242628",
"C.	c #454E55",
"D.	c #6B6B6B",
"E.	c #5C5B5C",
"F.	c #747473",
"G.	c #777777",
"H.	c #4C555C",
"I.	c #2C3135",
"J.	c #323334",
"K.	c #2D3236",
"L.	c #4C565E",
"M.	c #787777",
"N.	c #7D7E7D",
"O.	c #838382",
"P.	c #656D73",
"Q.	c #49555C",
"R.	c #394246",
"S.	c #323538",
"T.	c #323638",
"U.	c #3A4348",
"V.	c #4A555E",
"W.	c #666E74",
"X.	c #7D7D7D",
"Y.	c #49494A",
"Z.	c #737474",
"`.	c #8E8E8D",
" +	c #8D8D8E",
".+	c #878989",
"++	c #7C8184",
"@+	c #7B8085",
"#+	c #87898A",
"$+	c #8E8E8E",
"%+	c #8E8D8D",
"&+	c #747374",
"*+	c #272727",
"=+	c #535353",
"-+	c #6E6D6E",
";+	c #818180",
">+	c #8C8C8C",
",+	c #282827",
"'+	c #3A3A3A",
")+	c #393A3A",
"!+	c #323233",
"~+	c #141414",
". . . . . . . . . . . . . . . . . . . . . . . . . . ",
"+ + + + + + + + + + + + + + + + + + + + + + + + + + ",
"@ @ @ @ @ @ @ @ @ @ # $ % & * + @ @ @ @ @ @ @ @ @ @ ",
"= = = = = = = = - ; > , ' ' , > ) - = = = = = = = = ",
"= = = = = = = ! ~ { { { ] ] { { { ~ ^ = = = = = = = ",
"/ / / / / / ( _ : < [ } | | 1 [ 2 3 4 5 / / / / / / ",
"6 6 6 6 6 7 8 9 0 a b c d e c f a g h 8 7 6 6 6 6 6 ",
"i i i i i j 8 k l m n o p q q r s t u 8 v i i i i i ",
"w w w w w , x y z A B C D D C - E F y x , w w w w w ",
"G G G G H I J K L + M 7 N N ! M # O P Q I H G G G G ",
"R R R R S T U V W X ; Y Z Z Y `  ...+.@.#.$.R R R R ",
"Z Z Z Z %.&.*.=.-.;.>.W ,...,.'.H ).!.~.{.].Z Z Z Z ",
"^.^.^.^./.(._.:.<.[.}.;.|.|.1.2.3.4.5.6.7./.^.^.^.^.",
"8.8.8.8.,.9.0.| a.b.c.}.2.;.}.d.^.<.5.e.9.,.8.8.8.8.",
"> > > > f.L g.| h.8.c.}.;.1.;.d.i.j.k.l.L m.> > > > ",
"> > > > > n.o.p.q.> 3.2.1.1.2.c.^.r.s.t.n.> > > > > ",
"u.u.u.u.u.v.w.x.y.z.[.d.}.2.%.-.A.B.C.D.E.u.u.u.u.u.",
"u.u.u.u.u.W F.G.H.I.A.y ).).J.A.K.L.M.i W u.u.u.u.u.",
"<.<.<.<.<.<.; N.O.P.Q.R.S.T.U.V.W.n X.; <.<.<.<.<.<.",
"<.<.<.<.<.<.<.Y.Z.`. +.+++@+#+$+%+&+X <.<.<.<.<.<.<.",
"*+*+*+*+*+*+*+*+[.=+-+;+>+>+/ B =+[.*+*+*+*+*+*+*+*+",
"h.h.h.h.h.h.h.h.h.h.,+[.'+)+!+,+h.h.h.h.h.h.h.h.h.h.",
"a.a.a.a.a.a.a.a.a.a.a.a.a.a.a.a.a.a.a.a.a.a.a.a.a.a.",
"~+~+~+~+~+~+~+~+~+~+~+~+~+~+~+~+~+~+~+~+~+~+~+~+~+~+"};
