/* XPM */
static char * shade_pressed_xpm[] = {
"26 24 266 2",
"  	c None",
". 	c #9C9C9C",
"+ 	c #595959",
"@ 	c #7A7A7A",
"# 	c #5A5A5A",
"$ 	c #525251",
"% 	c #4D4C4C",
"& 	c #4C4D4C",
"* 	c #515151",
"= 	c #8A8A8A",
"- 	c #6F6F6F",
"; 	c #4D4D4D",
"> 	c #2E2E2E",
", 	c #1A1A1A",
"' 	c #0E0E0E",
") 	c #4D4D4C",
"! 	c #5E5E5E",
"~ 	c #242424",
"{ 	c #000000",
"] 	c #000001",
"^ 	c #010102",
"/ 	c #5E5E5F",
"( 	c #818181",
"_ 	c #565656",
": 	c #0D0D0D",
"< 	c #050505",
"[ 	c #050607",
"} 	c #080B0E",
"| 	c #171B1E",
"1 	c #1F2529",
"2 	c #171B1F",
"3 	c #080C0F",
"4 	c #050708",
"5 	c #060505",
"6 	c #0E0E0D",
"7 	c #565657",
"8 	c #7B7B7B",
"9 	c #5D5D5D",
"0 	c #121212",
"a 	c #0B0C0C",
"b 	c #131617",
"c 	c #353B3F",
"d 	c #565D61",
"e 	c #6B7277",
"f 	c #767C81",
"g 	c #767D81",
"h 	c #565D62",
"i 	c #363C41",
"j 	c #141618",
"k 	c #0B0B0B",
"l 	c #737373",
"m 	c #2D2E2E",
"n 	c #1A1D1F",
"o 	c #444C50",
"p 	c #6B7379",
"q 	c #848C92",
"r 	c #878F95",
"s 	c #879096",
"t 	c #879097",
"u 	c #868F95",
"v 	c #838C91",
"w 	c #6B747A",
"x 	c #434C52",
"y 	c #1A1E20",
"z 	c #2D2D2D",
"A 	c #696969",
"B 	c #151719",
"C 	c #323A40",
"D 	c #5E686E",
"E 	c #6E7981",
"F 	c #707D85",
"G 	c #6F7B85",
"H 	c #6D777E",
"I 	c #6A7379",
"J 	c #6A7177",
"K 	c #697176",
"L 	c #5D666D",
"M 	c #333B42",
"N 	c #151819",
"O 	c #626262",
"P 	c #3F3F3F",
"Q 	c #232222",
"R 	c #191F23",
"S 	c #37434C",
"T 	c #57646F",
"U 	c #5A6C78",
"V 	c #5D717F",
"W 	c #576570",
"X 	c #87BDD6",
"Y 	c #89BED7",
"Z 	c #87BCD5",
"` 	c #82B5CE",
" .	c #7BAAC4",
"..	c #525C64",
"+.	c #384650",
"@.	c #1A2125",
"#.	c #585858",
"$.	c #373637",
"%.	c #2A2A2B",
"&.	c #19232C",
"*.	c #2F414D",
"=.	c #475A69",
"-.	c #4B6274",
";.	c #4F6A7E",
">.	c #425260",
",.	c #88C7E8",
"'.	c #384248",
").	c #425361",
"!.	c #384046",
"~.	c #7AB6D2",
"{.	c #3C4951",
"].	c #304250",
"^.	c #1A262D",
"/.	c #2A2B2A",
"(.	c #373736",
"_.	c #505050",
":.	c #393939",
"<.	c #2E3032",
"[.	c #172730",
"}.	c #243A4A",
"|.	c #365164",
"1.	c #3A576C",
"2.	c #354D5E",
"3.	c #28333B",
"4.	c #8DD3FE",
"5.	c #28343C",
"6.	c #354A5A",
"7.	c #263139",
"8.	c #79BEE2",
"9.	c #293A45",
"0.	c #263E4F",
"a.	c #182835",
"b.	c #2E3033",
"c.	c #3A3939",
"d.	c #313131",
"e.	c #414142",
"f.	c #37393A",
"g.	c #1A2B38",
"h.	c #213A4D",
"i.	c #2B4C64",
"j.	c #284153",
"k.	c #88D0FF",
"l.	c #92DCFF",
"m.	c #97E2FF",
"n.	c #95DEFF",
"o.	c #8DD6FF",
"p.	c #7DC9F3",
"q.	c #213849",
"r.	c #233F53",
"s.	c #1C2F3B",
"t.	c #38393C",
"u.	c #303030",
"v.	c #454545",
"w.	c #464748",
"x.	c #22313D",
"y.	c #203D51",
"z.	c #2A4E67",
"A.	c #1E3648",
"B.	c #90DDFF",
"C.	c #13232E",
"D.	c #27445B",
"E.	c #152530",
"F.	c #9CECFF",
"G.	c #13222C",
"H.	c #254156",
"I.	c #274961",
"J.	c #234156",
"K.	c #243541",
"L.	c #464647",
"M.	c #555555",
"N.	c #303C45",
"O.	c #213D52",
"P.	c #2A506A",
"Q.	c #1D3648",
"R.	c #91E3FF",
"S.	c #12232E",
"T.	c #25465D",
"U.	c #132430",
"V.	c #A1F5FF",
"W.	c #223F54",
"X.	c #366485",
"Y.	c #2D5370",
"Z.	c #244257",
"`.	c #313E48",
" +	c #464746",
".+	c #606060",
"++	c #4C5054",
"@+	c #24445B",
"#+	c #213F53",
"$+	c #94E2FF",
"%+	c #A0F1FF",
"&+	c #A4FAFF",
"*+	c #A4FBFF",
"=+	c #284B63",
"-+	c #346182",
";+	c #274860",
">+	c #284254",
",+	c #4B5155",
"'+	c #2C2C2C",
")+	c #5C5B5B",
"!+	c #6C6C6B",
"~+	c #455159",
"{+	c #223E52",
"]+	c #27465F",
"^+	c #25455B",
"/+	c #223F55",
"(+	c #24435A",
"_+	c #2A4C66",
":+	c #325E7C",
"<+	c #2C526D",
"[+	c #234157",
"}+	c #46525B",
"|+	c #6B6B6B",
"1+	c #5C5B5C",
"2+	c #444444",
"3+	c #747473",
"4+	c #777777",
"5+	c #4D5A63",
"6+	c #314F65",
"7+	c #305977",
"8+	c #3A6B8E",
"9+	c #3A6B90",
"0+	c #376689",
"a+	c #325C7B",
"b+	c #325269",
"c+	c #4D5B65",
"d+	c #787777",
"e+	c #292929",
"f+	c #7D7E7D",
"g+	c #838382",
"h+	c #666E74",
"i+	c #4C606E",
"j+	c #3E5C71",
"k+	c #375C77",
"l+	c #385D78",
"m+	c #3F5E74",
"n+	c #4D6170",
"o+	c #676F75",
"p+	c #838383",
"q+	c #7D7D7D",
"r+	c #49494A",
"s+	c #737474",
"t+	c #8E8E8D",
"u+	c #8D8D8E",
"v+	c #878989",
"w+	c #7C8184",
"x+	c #7B8085",
"y+	c #87898A",
"z+	c #8E8E8E",
"A+	c #8E8D8D",
"B+	c #747374",
"C+	c #494949",
"D+	c #272727",
"E+	c #333333",
"F+	c #535353",
"G+	c #6E6D6E",
"H+	c #818180",
"I+	c #8C8C8C",
"J+	c #6E6E6E",
"K+	c #282828",
"L+	c #282827",
"M+	c #3A3A3A",
"N+	c #393A3A",
"O+	c #323233",
"P+	c #262626",
"Q+	c #141414",
". . . . . . . . . . . . . . . . . . . . . . . . . . ",
"+ + + + + + + + + + + + + + + + + + + + + + + + + + ",
"@ @ @ @ @ @ @ @ @ @ # $ % & * + @ @ @ @ @ @ @ @ @ @ ",
"= = = = = = = = - ; > , ' ' , > ) - = = = = = = = = ",
"= = = = = = = ! ~ { { ] ^ ^ ] { { ~ / = = = = = = = ",
"( ( ( ( ( ( _ : < [ } | 1 1 2 3 4 5 6 7 ( ( ( ( ( ( ",
"8 8 8 8 8 9 0 a b c d e f g e h i j k 0 9 8 8 8 8 8 ",
"l l l l l m 0 n o p q r s t u v w x y 0 z l l l l l ",
"A A A A A , B C D E F G H I I J K L M N , A A A A A ",
"O O O O P Q R S T U V W X Y Z `  ...+.@.Q P O O O O ",
"#.#.#.#.$.%.&.*.=.-.;.>.,.'.).!.~.{.].^./.(.#.#.#.#.",
"_._._._.:.<.[.}.|.1.2.3.4.5.6.7.8.9.0.a.b.c._._._._.",
"d.d.d.d.e.f.g.h.i.j.k.l.m.m.n.o.p.q.r.s.t.e.d.d.d.d.",
"u.u.u.u.v.w.x.y.z.A.B.C.D.E.F.G.H.I.J.K.w.v.u.u.u.u.",
"> > > > L.M.N.O.P.Q.R.S.T.U.V.W.X.Y.Z.`.M. +> > > > ",
"> > > > > .+++0.@+#+$+%+&+*+V.=+-+;+>+,+.+> > > > > ",
"'+'+'+'+'+)+!+~+{+]+^+/+(+@+_+:+<+[+}+|+1+'+'+'+'+'+",
"'+'+'+'+'+2+3+4+5+6+7+X.8+9+0+a+b+c+d+l 2+'+'+'+'+'+",
"e+e+e+e+e+e+; f+g+h+i+j+k+l+m+n+o+p+q+; e+e+e+e+e+e+",
"e+e+e+e+e+e+e+r+s+t+u+v+w+x+y+z+A+B+C+e+e+e+e+e+e+e+",
"D+D+D+D+D+D+D+D+E+F+G+H+I+I+( J+F+E+D+D+D+D+D+D+D+D+",
"K+K+K+K+K+K+K+K+K+K+L+E+M+N+O+L+K+K+K+K+K+K+K+K+K+K+",
"P+P+P+P+P+P+P+P+P+P+P+P+P+P+P+P+P+P+P+P+P+P+P+P+P+P+",
"Q+Q+Q+Q+Q+Q+Q+Q+Q+Q+Q+Q+Q+Q+Q+Q+Q+Q+Q+Q+Q+Q+Q+Q+Q+Q+"};
