/* XPM */
static char * title_3_active_xpm[] = {
"1 24 21 1",
" 	c None",
".	c #9C9C9C",
"+	c #595959",
"@	c #7A7A7A",
"#	c #8A8A8A",
"$	c #818181",
"%	c #7B7B7B",
"&	c #737373",
"*	c #696969",
"=	c #626262",
"-	c #585858",
";	c #505050",
">	c #313131",
",	c #303030",
"'	c #2E2E2E",
")	c #2C2C2C",
"!	c #292929",
"~	c #272727",
"{	c #282828",
"]	c #262626",
"^	c #141414",
".",
"+",
"@",
"#",
"#",
"$",
"%",
"&",
"*",
"=",
"-",
";",
">",
",",
"'",
"'",
")",
")",
"!",
"!",
"~",
"{",
"]",
"^"};
