/* XPM */
static char * title_4_inactive_xpm[] = {
"35 24 260 2",
"  	c None",
". 	c #9C9C9C",
"+ 	c #979797",
"@ 	c #7C7C7C",
"# 	c #656565",
"$ 	c #262626",
"% 	c #8C8C8C",
"& 	c #595959",
"* 	c #575756",
"= 	c #474747",
"- 	c #3D3C3C",
"; 	c #252525",
"> 	c #5B5B5B",
", 	c #757575",
"' 	c #464747",
") 	c #242425",
"! 	c #5C5B5C",
"~ 	c #757474",
"{ 	c #3C3D3D",
"] 	c #252425",
"^ 	c #5B5C5B",
"/ 	c #787878",
"( 	c #7A7A7A",
"_ 	c #797A7A",
": 	c #767575",
"< 	c #60605F",
"[ 	c #505150",
"} 	c #272728",
"| 	c #717170",
"1 	c #909091",
"2 	c #676867",
"3 	c #505151",
"4 	c #717071",
"5 	c #919191",
"6 	c #676868",
"7 	c #515151",
"8 	c #282828",
"9 	c #939393",
"0 	c #818081",
"a 	c #8A8A8A",
"b 	c #8A8A89",
"c 	c #848485",
"d 	c #6D6D6D",
"e 	c #5B5A5A",
"f 	c #292929",
"g 	c #737373",
"h 	c #7A7A79",
"i 	c #737374",
"j 	c #7A797A",
"k 	c #A0A1A1",
"l 	c #908F8F",
"m 	c #898989",
"n 	c #848584",
"o 	c #6C6C6C",
"p 	c #5A5A5A",
"q 	c #797979",
"r 	c #737473",
"s 	c #9C9D9C",
"t 	c #A0A0A0",
"u 	c #8F908F",
"v 	c #8A8989",
"w 	c #818181",
"x 	c #7D7D7D",
"y 	c #676666",
"z 	c #565656",
"A 	c #6E6E6F",
"B 	c #757576",
"C 	c #989797",
"D 	c #6F6E6E",
"E 	c #575657",
"F 	c #9B9B9B",
"G 	c #898888",
"H 	c #828282",
"I 	c #7B7B7B",
"J 	c #7A7A7B",
"K 	c #777676",
"L 	c #606060",
"M 	c #515252",
"N 	c #717171",
"O 	c #696868",
"P 	c #696969",
"Q 	c #525152",
"R 	c #949495",
"S 	c #7A7B7B",
"T 	c #7B7A7A",
"U 	c #737272",
"V 	c #5A5B5A",
"W 	c #4D4C4C",
"X 	c #272727",
"Y 	c #8A8A8B",
"Z 	c #636262",
"` 	c #4C4C4D",
" .	c #626263",
"..	c #4C4D4C",
"+.	c #8E8E8E",
"@.	c #727372",
"#.	c #666666",
"$.	c #545454",
"%.	c #474647",
"&.	c #686767",
"*.	c #858484",
"=.	c #5B5D5D",
"-.	c #676767",
";.	c #848484",
">.	c #5B5C5C",
",.	c #484647",
"'.	c #868786",
").	c #727172",
"!.	c #696A6A",
"~.	c #6B6A6A",
"{.	c #6A6B6A",
"].	c #626262",
"^.	c #616161",
"/.	c #5E5E5E",
"(.	c #4D4D4C",
"_.	c #414141",
":.	c #555555",
"<.	c #555556",
"[.	c #808080",
"}.	c #585858",
"|.	c #575858",
"1.	c #454545",
"2.	c #3C3C3C",
"3.	c #242424",
"4.	c #5D5D5D",
"5.	c #767676",
"6.	c #4F4F4F",
"7.	c #4E4F4F",
"8.	c #505050",
"9.	c #4F5050",
"0.	c #4D4D4D",
"a.	c #3F3E3F",
"b.	c #373737",
"c.	c #70706F",
"d.	c #494849",
"e.	c #373736",
"f.	c #585857",
"g.	c #707070",
"h.	c #494948",
"i.	c #727272",
"j.	c #595858",
"k.	c #4F4F50",
"l.	c #50504F",
"m.	c #313131",
"n.	c #2F2F30",
"o.	c #232424",
"p.	c #212121",
"q.	c #464646",
"r.	c #595859",
"s.	c #323232",
"t.	c #585959",
"u.	c #232324",
"v.	c #5A5A59",
"w.	c #313232",
"x.	c #313231",
"y.	c #323231",
"z.	c #323131",
"A.	c #303030",
"B.	c #2F2F2F",
"C.	c #262726",
"D.	c #232323",
"E.	c #575857",
"F.	c #313132",
"G.	c #3B3B3C",
"H.	c #303130",
"I.	c #313030",
"J.	c #313031",
"K.	c #303031",
"L.	c #2E2E2E",
"M.	c #2D2D2D",
"N.	c #222222",
"O.	c #444444",
"P.	c #3A3A3A",
"Q.	c #2C2C2C",
"R.	c #202020",
"S.	c #444443",
"T.	c #555655",
"U.	c #444344",
"V.	c #565657",
"W.	c #393938",
"X.	c #2E2D2E",
"Y.	c #2D2E2E",
"Z.	c #2E2E2D",
"`.	c #2A2A2A",
" +	c #202021",
".+	c #434343",
"++	c #545554",
"@+	c #555554",
"#+	c #2F2E2F",
"$+	c #202121",
"%+	c #383837",
"&+	c #2C2D2C",
"*+	c #2C2C2D",
"=+	c #2D2C2D",
"-+	c #2D2D2C",
";+	c #2D2C2C",
">+	c #2B2B2C",
",+	c #434242",
"'+	c #535353",
")+	c #2D2D2E",
"!+	c #545353",
"~+	c #434243",
"{+	c #363637",
"]+	c #2B2C2B",
"^+	c #2B2B2B",
"/+	c #2C2B2B",
"(+	c #2B2C2C",
"_+	c #1F1F1F",
":+	c #525252",
"<+	c #535252",
"[+	c #363535",
"}+	c #2A2A2B",
"|+	c #2A2B2A",
"1+	c #2B2A2A",
"2+	c #1E1E1E",
"3+	c #404141",
"4+	c #343433",
"5+	c #282928",
"6+	c #292829",
"7+	c #292928",
"8+	c #262727",
"9+	c #1F1F20",
"0+	c #1D1E1E",
"a+	c #404040",
"b+	c #515150",
"c+	c #2A2B2B",
"d+	c #1E1D1E",
"e+	c #525251",
"f+	c #333233",
"g+	c #282728",
"h+	c #282827",
"i+	c #1F1E1F",
"j+	c #1D1D1D",
"k+	c #504F50",
"l+	c #403F40",
"m+	c #4F504F",
"n+	c #272627",
"o+	c #272626",
"p+	c #262627",
"q+	c #272726",
"r+	c #181818",
"s+	c #1B1B1B",
"t+	c #353535",
"u+	c #1F201F",
"v+	c #201F1F",
"w+	c #1F2020",
"x+	c #20201F",
"y+	c #111111",
"z+	c #212222",
"A+	c #161615",
"B+	c #0E0E0F",
"C+	c #161616",
"D+	c #0E0F0F",
"E+	c #2B2A2B",
"F+	c #191A1A",
"G+	c #141414",
"H+	c #141413",
"I+	c #131414",
"J+	c #131314",
"K+	c #141313",
". . . . . . . . . . . . . . . . . . . . + @ # $ % + @ # $ % + @ # $ % ",
"& & & & & & & & & & & & & & & & & & & * = - ; > , ' - ) ! ~ ' { ] ^ / ",
"( ( ( ( ( ( ( ( ( ( ( ( ( ( ( ( ( _ : < [ } | 1 2 3 } 4 5 6 7 8 4 9 0 ",
"a a a a a a a a a a a a a a a a b c d e f ( . g e f h . i e f j k l m ",
"a a a a a a a a a a a a a a a m n o p f q . r e f q s g p f q t u v m ",
"w w w w w w w w w w w w w w w x y z 8 , + A z 8 B C D E 8 , F G H w w ",
"I I I I I I I I I I I I I J K L M 8 N 5 O M 8 N 5 P Q 8 N R H S T I I ",
"g g g g g g g g g g g g U D V W X o Y Z ` X o Y  ...X o +.q U @.g g g ",
"P P P P P P P P P P P P #.$.%.$ &.*.=.= $ -.;.>.,.$ &.'.).!.~.{.P P P ",
"].].].].].].].].].].^./.(._.; ].x :._.; ].x <._.; ].[.P ^.^.^.^.].].].",
"}.}.}.}.}.}.}.}.}.|.:.1.2.3.4.5.6.2.3.4.5.7.2.3.4.q ^.}.}.}.}.}.}.}.}.",
"8.8.8.8.8.8.8.8.9.0.a.b.3.|.c.d.e.3.f.g.h.b.3.}.i.j.k.l.8.l.8.9.8.8.8.",
"m.m.m.m.m.m.m.m.n.X o.p.q.r.s.3.p.q.t.s.u.p.q.v.2.w.s.s.x.y.s.z.m.m.m.",
"A.A.A.A.A.A.A.B.C.D.p.1.E.F.D.p.1.|.F.D.p.q.& G.A.A.H.I.J.K.A.A.A.A.A.",
"L.L.L.L.L.L.M.; N.p.O.z A.N.p.O.z A.N.p.O.}.P.B.B.B.B.B.B.B.B.B.L.L.L.",
"L.L.L.L.L.Q.u.N.R.S.z B.N.R.O.T.B.N.R.U.V.W.X.L.L.Y.L.X.Y.Z.L.Y.L.L.L.",
"Q.Q.Q.Q.`.D. +R..+++B.R.R..+@+#+$+R..+:.%+&+*+=+-+;+M.*+Q.Q.;+*+Q.Q.Q.",
"Q.Q.>+f N.R.R.,+'+)+R.R.,+!+M.R.R.~+:.{+]+^+>+]+^+/+]+^+(+^+>+^+Q.Q.Q.",
"f f f p._+R._.:+&+_+R._.<+*+_+R._.$.[+`.`.}+`.`.|+`.}+`.`.1+`.`.f f f ",
"f 8 R.2+R._.:+Q.2+R.3+M Q.2+R.3+'+4+f f 5+f 6+f 7+f f f f f f f f f f ",
"8+9+0+R.a+b+c+2+R.a+b+c+d+R.a+e+f+g+g+8 8 8 g+8 8 h+g+8 8 8 8 } X X X ",
"i+j+R.a+k+`.j+R.l+m+`.j+R.a+7 x.X n+o+8+p+$ 8+X o+n+p+q+8+q+8+p+8 8 8 ",
"r+s+t+.+D.r+s+t+.+D.r+s+t+O.f u+R.v+w+x+w+x+x+x+x+R.v+R.R.R.w+R.$ $ $ ",
"y+z+`.A+B+y+N.`.C+D+y+N.E+F+G+H+I+G+H+J+G+G+I+K+I+G+G+G+H+G+K+I+G+G+G+"};
