/* XPM */
static char * top_left_inactive_xpm[] = {
"11 24 33 1",
" 	c None",
".	c #888888",
"+	c #8C8C8C",
"@	c #939393",
"#	c #949494",
"$	c #858585",
"%	c #848484",
"&	c #7D7D7D",
"*	c #747474",
"=	c #696969",
"-	c #636363",
";	c #5D5D5D",
">	c #727272",
",	c #7A7A7A",
"'	c #707070",
")	c #8A8A8A",
"!	c #5C5C5C",
"~	c #818181",
"{	c #7B7B7B",
"]	c #3B3C3E",
"^	c #737373",
"/	c #626262",
"(	c #585858",
"_	c #505050",
":	c #313131",
"<	c #303030",
"[	c #2E2E2E",
"}	c #2C2C2C",
"|	c #292929",
"1	c #272727",
"2	c #282828",
"3	c #262626",
"4	c #141414",
"       .+@#",
"    $%&*=-;",
"   >,,,,,,,",
"  '))))))))",
"  )))))))))",
" !~~~~~~~~~",
" '{{{{{{{{{",
"]^^^^^^^^^^",
"]==========",
"]//////////",
"]((((((((((",
"]__________",
"]::::::::::",
"]<<<<<<<<<<",
"][[[[[[[[[[",
"][[[[[[[[[[",
"]}}}}}}}}}}",
"]}}}}}}}}}}",
"]||||||||||",
"]||||||||||",
"]1111111111",
"]2222222222",
"]3333333333",
"]3333334444"};
