/* XPM */
static char * top_right_active_xpm[] = {
"11 24 37 1",
" 	c None",
".	c #949494",
"+	c #939393",
"@	c #8C8C8C",
"#	c #888888",
"$	c #5D5D5D",
"%	c #636363",
"&	c #696969",
"*	c #747474",
"=	c #7D7D7D",
"-	c #848484",
";	c #858585",
">	c #7A7A7A",
",	c #727272",
"'	c #3E3E3E",
")	c #8A8A8A",
"!	c #707070",
"~	c #3F3F3F",
"{	c #414141",
"]	c #818181",
"^	c #5C5C5C",
"/	c #7B7B7B",
"(	c #343434",
"_	c #737373",
":	c #2C2C2C",
"<	c #282828",
"[	c #626262",
"}	c #585858",
"|	c #505050",
"1	c #313131",
"2	c #303030",
"3	c #2E2E2E",
"4	c #292929",
"5	c #272727",
"6	c #262626",
"7	c #141414",
"8	c #3B3C3E",
".+@#       ",
"$%&*=-;    ",
">>>>>>>,'  ",
"))))))))!~ ",
"))))))))){ ",
"]]]]]]]]]^{",
"/////////!(",
"__________:",
"&&&&&&&&&&<",
"[[[[[[[[[[<",
"}}}}}}}}}}<",
"||||||||||<",
"1111111111<",
"2222222222<",
"3333333333<",
"3333333333<",
"::::::::::<",
"::::::::::<",
"4444444444<",
"4444444444<",
"5555555555<",
"<<<<<<<<<<<",
"6666666666<",
"7778666666<"};
